# xmcd
# 
# Track frame offsets:
#	150
#	9679
#	19446
#	31011
#	40055
#	49966
#	58899
#	76675
#	85154
#	90968
#	100720
#	115858
#	124111
#	137510
#	147967
#	158943
#	175231
#	186594
#	194372
#	202990
#
# Disc length: 2834 seconds
#
# Revision: 1
# Processed by: cddbd v1.5.1PL0 Copyright (c) Steve Scherf et al.
# Submitted via: Audio-CD-Archiv 3.00.486
#
DISCID=080b1014
DTITLE=Gene Maltais - Gang War!
DYEAR=1900
DGENRE=blues
TTITLE0=Gangwar
TTITLE1=The Raging Sea
TTITLE2=Deep River Blues
TTITLE3=Crazy Blues
TTITLE4=The Bug
TTITLE5=Lovemaking
TTITLE6=Forever in my Heart
TTITLE7=Gangwar
TTITLE8=The Raging Sea
TTITLE9=Rock and Roll Beat
TTITLE10=Begone come the Dawn
TTITLE11=The Raging Sea
TTITLE12=Deep River Blues
TTITLE13=Little Girl
TTITLE14=Voodoo woman
TTITLE15=My Woman
TTITLE16=Rockabilly Beat
TTITLE17=Gangwar
TTITLE18=The Raging Sea
TTITLE19=Little Girl
EXTD=
EXTT0=
EXTT1=
EXTT2=
EXTT3=
EXTT4=
EXTT5=
EXTT6=
EXTT7=
EXTT8=
EXTT9=
EXTT10=
EXTT11=
EXTT12=
EXTT13=
EXTT14=
EXTT15=
EXTT16=
EXTT17=
EXTT18=
EXTT19=
PLAYORDER=
